#!OML:ASF F:\VICON\USERDATA\INSTALL\rory3\rory3.ASF
:FULLY-SPECIFIED
:DEGREES
744
root -1.71872 29.1573 -6.58254 7.1282 2.30793 2.79414
lowerback 3.57118 0.411882 -1.72656
upperback 0.739699 0.508943 1.70551
thorax -1.27327 0.262479 2.69733
lowerneck -14.823 1.24165 -9.64227
upperneck 41.214 5.73851 -0.555976
head 17.5295 0.778727 2.53618
rclavicle 1.98785e-015 9.54166e-015
rhumerus -30.5385 -11.4217 -75.8114
rradius 30.6441
rwrist 19.5972
rhand -19.5347 0.738317
rfingers 7.12502
rthumb 6.78898 -29.1328
lclavicle 1.98785e-015 9.54166e-015
lhumerus -34.377 13.6418 80.4416
lradius 29.7759
lwrist -5.99966
lhand -8.13254 28.1589
lfingers 7.12502
lthumb 17.7813 57.366
rfemur -12.7539 1.10556 21.1886
rtibia 28.0027
rfoot -21.2276 -4.65405
rtoes 16.519
lfemur -19.1796 1.24677 -23.438
ltibia 23.9074
lfoot -12.0145 5.06154
ltoes -17.176
745
root -1.71038 29.1554 -6.57808 7.06449 2.31976 2.73426
lowerback 3.72286 0.415543 -1.74798
upperback 0.744595 0.512294 1.76366
thorax -1.35406 0.265264 2.76849
lowerneck -14.7667 1.29527 -9.62019
upperneck 41.2138 5.83019 -0.611766
head 17.5135 0.8133 2.52166
rclavicle -6.36111e-015 -4.77083e-015
rhumerus -30.3933 -11.025 -75.9434
rradius 30.4814
rwrist 19.5493
rhand -19.45 0.917774
rfingers 7.12502
rthumb 6.8708 -28.9507
lclavicle -6.36111e-015 -4.77083e-015
lhumerus -34.4154 13.5898 80.5605
lradius 30.0047
lwrist -6.03628
lhand -8.0658 27.9143
lfingers 7.12502
lthumb 17.8455 57.1155
rfemur -12.672 1.07627 21.2263
rtibia 28.0159
rfoot -21.264 -4.58849
rtoes 16.5974
lfemur -19.1772 1.19486 -23.3777
ltibia 23.9844
lfoot -12.2853 4.61172
ltoes -18.1119
746
root -1.70157 29.1511 -6.56805 7.0681 2.29962 2.70804
lowerback 3.69468 0.476695 -1.70123
upperback 0.762823 0.595084 1.71769
thorax -1.32369 0.305815 2.69086
lowerneck -14.6927 1.31305 -9.57227
upperneck 41.1558 5.80866 -0.566787
head 17.4588 0.824656 2.52694
rclavicle -5.96354e-015 -1.27222e-014
rhumerus -30.3413 -10.7607 -76.188
rradius 30.4535
rwrist 19.4592
rhand -19.5122 0.759689
rfingers 7.12502
rthumb 6.81073 -29.1108
lclavicle -5.96354e-015 -1.27222e-014
lhumerus -34.3801 13.3569 80.6092
lradius 30.2088
lwrist -6.02958
lhand -8.03788 27.5944
lfingers 7.12502
lthumb 17.8724 56.7931
rfemur -12.6584 1.01975 21.2232
rtibia 28.0523
rfoot -21.3072 -4.45865
rtoes 16.7476
lfemur -19.1688 1.12732 -23.3599
ltibia 24.0303
lfoot -12.5565 4.14219
ltoes -18.6924
747
root -1.68843 29.1485 -6.55099 7.16456 2.23079 2.66285
lowerback 3.53881 0.60698 -1.58595
upperback 0.736735 0.77437 1.69733
thorax -1.27212 0.394624 2.59738
lowerneck -14.6117 1.22205 -9.61937
upperneck 41.1559 5.67239 -0.552966
head 17.4453 0.767423 2.51604
rclavicle -1.33186e-014 1.35174e-014
rhumerus -30.4553 -10.6201 -76.2692
rradius 30.5726
rwrist 19.2952
rhand -19.4696 0.648238
rfingers 7.12502
rthumb 6.85183 -29.2209
lclavicle -1.33186e-014 1.35174e-014
lhumerus -34.3841 13.0611 80.7905
lradius 30.4524
lwrist -5.84772
lhand -7.99306 27.6411
lfingers 7.12502
lthumb 17.9155 56.8359
rfemur -12.7286 0.91628 21.2164
rtibia 28.1059
rfoot -21.3033 -4.28916
rtoes 16.6162
lfemur -19.2129 0.96364 -23.3309
ltibia 24.0651
lfoot -12.7433 3.70127
ltoes -18.9504
748
root -1.67469 29.146 -6.53547 7.18361 2.17465 2.65063
lowerback 3.49186 0.620753 -1.57839
upperback 0.750858 0.792663 1.65102
thorax -1.23164 0.403072 2.54505
lowerneck -14.7506 1.2198 -9.46265
upperneck 41.2659 5.66183 -0.591394
head 17.5509 0.771862 2.47575
rclavicle 1.96797e-014 9.54166e-015
rhumerus -30.356 -10.394 -76.5377
rradius 30.6012
rwrist 19.4614
rhand -19.2718 0.402539
rfingers 7.12502
rthumb 7.0428 -29.4603
lclavicle 1.96797e-014 9.54166e-015
lhumerus -34.3758 13.0386 80.759
lradius 30.633
lwrist -5.71382
lhand -7.94342 27.8089
lfingers 7.12502
lthumb 17.9633 56.9994
rfemur -12.7302 0.857107 21.1803
rtibia 28.1701
rfoot -21.3244 -4.2179
rtoes 16.3405
lfemur -19.1897 0.811458 -23.341
ltibia 24.089
lfoot -12.7631 3.16067
ltoes -18.3188
